<?xml version="1.0" encoding="utf-8"?>
<!-- Generator: Adobe Illustrator 25.2.0, SVG Export Plug-In . SVG Version: 6.00 Build 0)  -->
<svg version="1.1" id="Layer_1" xmlns="http://www.w3.org/2000/svg" xmlns:xlink="http://www.w3.org/1999/xlink" x="0px" y="0px"
	 viewBox="0 0 183 183" style="enable-background:new 0 0 183 183;" xml:space="preserve">
<style type="text/css">
	.st0{fill:none;}
	
		.st1{opacity:0.5;fill:none;stroke:url(#Path_8_);stroke-width:3.752;stroke-linecap:square;stroke-linejoin:round;enable-background:new    ;}
	.st2{fill:none;stroke:url(#Path_9_);stroke-width:3.752;stroke-linecap:square;stroke-linejoin:round;}
	
		.st3{opacity:0.5;fill:none;stroke:url(#Path_10_);stroke-width:3.752;stroke-linecap:square;stroke-linejoin:round;enable-background:new    ;}
	.st4{fill:none;stroke:url(#Path_11_);stroke-width:3.752;stroke-linecap:square;stroke-linejoin:round;}
	.st5{opacity:0.5;fill-rule:evenodd;clip-rule:evenodd;fill:url(#Oval_2_);enable-background:new    ;}
	.st6{fill-rule:evenodd;clip-rule:evenodd;fill:url(#Oval_3_);}
	.st7{fill:none;stroke:url(#Path_12_);stroke-width:3.752;stroke-linecap:square;stroke-linejoin:round;}
	.st8{fill:none;stroke:url(#Path_13_);stroke-width:3.752;stroke-linecap:square;stroke-linejoin:round;}
	.st9{fill:none;stroke:url(#Path_14_);stroke-width:3.752;stroke-linecap:square;stroke-linejoin:round;}
	.st10{fill:none;stroke:url(#Path_15_);stroke-width:3.752;stroke-linecap:square;stroke-linejoin:round;}
	.st11{opacity:0.4135;fill-rule:evenodd;clip-rule:evenodd;fill:url(#Path-3_1_);enable-background:new    ;}
	.st12{opacity:0.4135;fill-rule:evenodd;clip-rule:evenodd;fill:url(#Path-3-Copy-2_1_);enable-background:new    ;}
	.st13{opacity:0.4135;fill-rule:evenodd;clip-rule:evenodd;fill:url(#Path-3-Copy-6_1_);enable-background:new    ;}
	.st14{opacity:0.4135;fill-rule:evenodd;clip-rule:evenodd;fill:url(#Path-3-Copy-7_1_);enable-background:new    ;}
	.st15{opacity:0.4135;fill-rule:evenodd;clip-rule:evenodd;fill:url(#Path-3-Copy-8_1_);enable-background:new    ;}
	.st16{opacity:0.4135;fill-rule:evenodd;clip-rule:evenodd;fill:url(#Path-3-Copy-9_1_);enable-background:new    ;}
	.st17{opacity:0.4135;fill-rule:evenodd;clip-rule:evenodd;fill:url(#Path-3-Copy-10_1_);enable-background:new    ;}
	.st18{opacity:0.4135;fill-rule:evenodd;clip-rule:evenodd;fill:url(#Path-3-Copy-11_1_);enable-background:new    ;}
	.st19{opacity:0.4135;fill-rule:evenodd;clip-rule:evenodd;fill:url(#Path-3-Copy-3_1_);enable-background:new    ;}
	.st20{opacity:0.4135;fill-rule:evenodd;clip-rule:evenodd;fill:url(#Path-3-Copy-4_1_);enable-background:new    ;}
	.st21{opacity:0.4135;fill-rule:evenodd;clip-rule:evenodd;fill:url(#Path-3-Copy-5_1_);enable-background:new    ;}
	.st22{opacity:0.4135;fill-rule:evenodd;clip-rule:evenodd;fill:url(#Path-3-Copy_1_);enable-background:new    ;}
</style>
<rect class="st0" width="183" height="183"/>
<g id="edevi_final">
	<g id="Group" transform="translate(18.000000, 25.000000)">
		<g id="Abstractredo">
			
				<linearGradient id="Path_8_" gradientUnits="userSpaceOnUse" x1="-249.61" y1="62.1689" x2="-251.2518" y2="61.6811" gradientTransform="matrix(83.8906 0 0 52.6562 21076.5039 -3204.0051)">
				<stop  offset="0" style="stop-color:#FFD101"/>
				<stop  offset="1" style="stop-color:#F12C11"/>
			</linearGradient>
			<path id="Path" class="st1" d="M72.7,10.9c0,0-17.9,67.6-64.8,81.5c0-16.1,29.1-55.7,64.8-55.7s64.8,39.6,64.8,55.7
				C90.5,78.4,72.7,10.9,72.7,10.9z"/>
			
				<linearGradient id="Path_9_" gradientUnits="userSpaceOnUse" x1="-249.61" y1="62.1689" x2="-251.2518" y2="61.6811" gradientTransform="matrix(83.8906 0 0 52.6562 21076.5039 -3204.0051)">
				<stop  offset="0" style="stop-color:#FFD101"/>
				<stop  offset="1" style="stop-color:#F17A11"/>
			</linearGradient>
			<path id="Path_1_" class="st2" d="M72.7,10.9c0,0-17.9,67.6-64.8,81.5c0-16.1,29.1-55.7,64.8-55.7s64.8,39.6,64.8,55.7
				C90.5,78.4,72.7,10.9,72.7,10.9z"/>
			
				<linearGradient id="Path_10_" gradientUnits="userSpaceOnUse" x1="-250.3716" y1="61.2276" x2="-250.3716" y2="62.7735" gradientTransform="matrix(83.8906 0 0 52.6562 21076.5039 -3187.3743)">
				<stop  offset="0" style="stop-color:#04CAFC"/>
				<stop  offset="1" style="stop-color:#90FD9E"/>
			</linearGradient>
			<path id="Path_2_" class="st3" d="M72.7,118c0,0-20.3-68.3-64.8-81.5c0,15.2,29.1,54.7,64.8,54.7s64.8-39.6,64.8-54.7
				C92.9,49.7,72.7,118,72.7,118z"/>
			
				<linearGradient id="Path_11_" gradientUnits="userSpaceOnUse" x1="-249.6647" y1="61.5813" x2="-250.7436" y2="61.9941" gradientTransform="matrix(83.8906 0 0 52.6562 21076.5039 -3187.3743)">
				<stop  offset="0" style="stop-color:#04CAFC"/>
				<stop  offset="1" style="stop-color:#90FD9E"/>
			</linearGradient>
			<path id="Path_3_" class="st4" d="M72.7,118c0,0-20.3-68.3-64.8-81.5c0,15.2,29.1,54.7,64.8,54.7s64.8-39.6,64.8-54.7
				C92.9,49.7,72.7,118,72.7,118z"/>
			
				<linearGradient id="Oval_2_" gradientUnits="userSpaceOnUse" x1="-237.6838" y1="90.4726" x2="-237.6838" y2="92.0185" gradientTransform="matrix(15.8717 0 0 15.8717 3844.6655 -1384.2236)">
				<stop  offset="0" style="stop-color:#F80759"/>
				<stop  offset="1" style="stop-color:#BC4E9C"/>
			</linearGradient>
			<circle id="Oval" class="st5" cx="72.2" cy="63.9" r="12.2"/>
			
				<radialGradient id="Oval_3_" cx="-237.6877" cy="90.4726" r="1.5459" gradientTransform="matrix(15.8717 0 0 15.8717 3844.6655 -1384.2236)" gradientUnits="userSpaceOnUse">
				<stop  offset="0" style="stop-color:#F80759"/>
				<stop  offset="1" style="stop-color:#BC4E9C"/>
			</radialGradient>
			<circle id="Oval_1_" class="st6" cx="72.2" cy="63.9" r="12.2"/>
			
				<linearGradient id="Path_12_" gradientUnits="userSpaceOnUse" x1="-200.7144" y1="193.2604" x2="-225.1644" y2="182.9562" gradientTransform="matrix(5.6382 0 0 4.6868 1277.9132 -840.5968)">
				<stop  offset="0" style="stop-color:#FFD101"/>
				<stop  offset="1" style="stop-color:#F17A11"/>
			</linearGradient>
			<path id="Path_4_" class="st7" d="M107.6,49.1c3.1,2.2,6,4.6,8.7,7.3"/>
			
				<linearGradient id="Path_13_" gradientUnits="userSpaceOnUse" x1="-141.9372" y1="332.4844" x2="-195.5044" y2="304.6543" gradientTransform="matrix(2.7066 0 0 2.4348 534.6097 -714.0245)">
				<stop  offset="0" style="stop-color:#FFD101"/>
				<stop  offset="1" style="stop-color:#F17A11"/>
			</linearGradient>
			<path id="Path_5_" class="st8" d="M113,78.9c-1.4-1.2-2.8-2.5-4.2-3.7"/>
			
				<linearGradient id="Path_14_" gradientUnits="userSpaceOnUse" x1="-136.6424" y1="274.2467" x2="-173.0265" y2="244.804" gradientTransform="matrix(2.5808 0 0 3.2466 460.3846 -761.7847)">
				<stop  offset="0" style="stop-color:#FFD101"/>
				<stop  offset="1" style="stop-color:#F17A11"/>
			</linearGradient>
			<path id="Path_6_" class="st9" d="M47.5,62.4c-1.2,1.7-2.6,3.4-4,4.9"/>
			
				<linearGradient id="Path_15_" gradientUnits="userSpaceOnUse" x1="-116.549" y1="320.527" x2="-160.7514" y2="288.4268" gradientTransform="matrix(2.2375 0 0 2.7018 357.8716 -735.2742)">
				<stop  offset="0" style="stop-color:#FFD101"/>
				<stop  offset="1" style="stop-color:#F17A11"/>
			</linearGradient>
			<path id="Path_7_" class="st10" d="M19.8,66.5c1.1-1.4,2.3-2.8,3.4-4.2"/>
		</g>
		
			<linearGradient id="Path-3_1_" gradientUnits="userSpaceOnUse" x1="-161.2183" y1="279.9066" x2="-161.9106" y2="279.7419" gradientTransform="matrix(2.6833 0 0 2.85 499.3693 -760.1313)">
			<stop  offset="0" style="stop-color:#741105;stop-opacity:0"/>
			<stop  offset="1" style="stop-color:#741105"/>
		</linearGradient>
		<path id="Path-3" class="st11" d="M65.6,35.3l-2,4.2c1.7-0.3,2.6-0.5,2.9-0.5c0.3,0,0.8-1.4,1.2-3.9L65.6,35.3z"/>
		
			<linearGradient id="Path-3-Copy-2_1_" gradientUnits="userSpaceOnUse" x1="-139.4907" y1="291.444" x2="-139.9251" y2="290.8851" gradientTransform="matrix(2.3501 0 0 2.7575 453.5811 -736.8796)">
			<stop  offset="0" style="stop-color:#741105;stop-opacity:0"/>
			<stop  offset="1" style="stop-color:#741105"/>
		</linearGradient>
		<path id="Path-3-Copy-2" class="st12" d="M126,64.1l-2.5,2.9c0.5,0.6,0.8,1.1,1.1,1.2c0.2,0.2,1.1-0.6,2.6-2.8L126,64.1z"/>
		
			<linearGradient id="Path-3-Copy-6_1_" gradientUnits="userSpaceOnUse" x1="-149.4812" y1="350.5074" x2="-149.8229" y2="350.8219" gradientTransform="matrix(2.5342 0 0 2.1954 492.4502 -719.4329)">
			<stop  offset="0" style="stop-color:#066B78;stop-opacity:0"/>
			<stop  offset="1" style="stop-color:#001055"/>
		</linearGradient>
		<polygon id="Path-3-Copy-6" class="st13" points="111.3,49.5 114.3,52 115.4,51.1 112.4,48.6 		"/>
		
			<linearGradient id="Path-3-Copy-7_1_" gradientUnits="userSpaceOnUse" x1="-150.5756" y1="336.4027" x2="-150.9174" y2="336.7508" gradientTransform="matrix(2.5596 0 0 2.3335 498.4548 -710.3232)">
			<stop  offset="0" style="stop-color:#066B78;stop-opacity:0"/>
			<stop  offset="1" style="stop-color:#001055"/>
		</linearGradient>
		<polygon id="Path-3-Copy-7" class="st14" points="110.7,74.3 113.5,76.7 114.6,75.8 112,73.2 		"/>
		
			<linearGradient id="Path-3-Copy-8_1_" gradientUnits="userSpaceOnUse" x1="-162.3201" y1="247.5388" x2="-162.6839" y2="247.3489" gradientTransform="matrix(2.7948 0 0 3.4081 541.8273 -754.1156)">
			<stop  offset="0" style="stop-color:#066B78;stop-opacity:0"/>
			<stop  offset="1" style="stop-color:#001055"/>
		</linearGradient>
		<polygon id="Path-3-Copy-8" class="st15" points="87.8,87.1 85.4,91.7 88,91 89.7,86.5 		"/>
		
			<linearGradient id="Path-3-Copy-9_1_" gradientUnits="userSpaceOnUse" x1="-184.5928" y1="419.3017" x2="-184.5612" y2="419.1088" gradientTransform="matrix(3.5627 0 0 1.8292 720.1747 -673.7585)">
			<stop  offset="0" style="stop-color:#066B78;stop-opacity:0"/>
			<stop  offset="1" style="stop-color:#001055"/>
		</linearGradient>
		<polygon id="Path-3-Copy-9" class="st16" points="64.5,92.7 59.9,91.7 60.6,93.4 65.3,94.5 		"/>
		
			<linearGradient id="Path-3-Copy-10_1_" gradientUnits="userSpaceOnUse" x1="-153.2699" y1="302.2705" x2="-153.6603" y2="301.8157" gradientTransform="matrix(2.3127 0 0 2.6391 378.2358 -731.066)">
			<stop  offset="0" style="stop-color:#066B78;stop-opacity:0"/>
			<stop  offset="1" style="stop-color:#001055"/>
		</linearGradient>
		<polygon id="Path-3-Copy-10" class="st17" points="24.1,64.1 21.7,67 22.8,68.2 25.2,65.5 		"/>
		
			<linearGradient id="Path-3-Copy-11_1_" gradientUnits="userSpaceOnUse" x1="-149.6874" y1="291.4763" x2="-150.045" y2="291.0215" gradientTransform="matrix(2.3133 0 0 2.7582 393.7414 -736.3127)">
			<stop  offset="0" style="stop-color:#066B78;stop-opacity:0"/>
			<stop  offset="1" style="stop-color:#001055"/>
		</linearGradient>
		<polygon id="Path-3-Copy-11" class="st18" points="47.9,65 45.5,68.1 46.4,69.3 49,66.5 		"/>
		
			<linearGradient id="Path-3-Copy-3_1_" gradientUnits="userSpaceOnUse" x1="-140.0274" y1="290.9891" x2="-140.4365" y2="290.4301" gradientTransform="matrix(2.2864 0 0 2.7642 422.0441 -736.5856)">
			<stop  offset="0" style="stop-color:#741105;stop-opacity:0"/>
			<stop  offset="1" style="stop-color:#741105"/>
		</linearGradient>
		<path id="Path-3-Copy-3" class="st19" d="M102.1,65l-2.3,2.9c0.5,0.6,0.8,1.1,1.1,1.2c0.2,0.2,1.1-0.8,2.5-2.8L102.1,65z"/>
		
			<linearGradient id="Path-3-Copy-4_1_" gradientUnits="userSpaceOnUse" x1="-170.31" y1="323.2646" x2="-169.9123" y2="322.886" gradientTransform="matrix(2.8184 0 0 2.4522 512.1564 -713.8232)">
			<stop  offset="0" style="stop-color:#741105;stop-opacity:0"/>
			<stop  offset="1" style="stop-color:#741105"/>
		</linearGradient>
		<path id="Path-3-Copy-4" class="st20" d="M34.7,79.2l-2.9-2.5c-0.6,0.6-1.1,0.9-1.4,1.2c-0.3,0.3,0.6,1.1,2.8,2.6L34.7,79.2z"/>
		
			<linearGradient id="Path-3-Copy-5_1_" gradientUnits="userSpaceOnUse" x1="-167.8979" y1="330.9521" x2="-167.5004" y2="330.5819" gradientTransform="matrix(2.7364 0 0 2.3545 490.7953 -725.018)">
			<stop  offset="0" style="stop-color:#741105;stop-opacity:0"/>
			<stop  offset="1" style="stop-color:#741105"/>
		</linearGradient>
		<path id="Path-3-Copy-5" class="st21" d="M33.7,54.6L30.9,52c-0.8,0.6-1.2,1.1-1.4,1.4c-0.3,0.3,0.8,1.1,3.1,2.3L33.7,54.6z"/>
		
			<linearGradient id="Path-3-Copy_1_" gradientUnits="userSpaceOnUse" x1="-184.3437" y1="389.2254" x2="-184.2811" y2="388.9498" gradientTransform="matrix(3.6616 0 0 1.9372 759.4595 -712.7733)">
			<stop  offset="0" style="stop-color:#741105;stop-opacity:0"/>
			<stop  offset="1" style="stop-color:#741105"/>
		</linearGradient>
		<path id="Path-3-Copy" class="st22" d="M86.6,40.7l-4.8-1.2c0.6,2,1.1,2.9,1.4,2.8c0.3,0,1.7,0,4.2,0.2L86.6,40.7z"/>
	</g>
</g>
</svg>
